<?xml version="1.0" encoding="utf-8"?>
<svg version="1.1" xmlns:xlink="http://www.w3.org/1999/xlink" width="93px" height="93px" xmlns="http://www.w3.org/2000/svg">
  <g transform="matrix(1 0 0 1 -992 0 )">
    <path d="M 1038.5 0  C 1064.54 0  1085 20.46  1085 46.5  C 1085 72.54  1064.54 93  1038.5 93  C 1012.46 93  992 72.54  992 46.5  C 992 20.46  1012.46 0  1038.5 0  Z " fill-rule="nonzero" fill="#ffffff" stroke="none" />
    <path d="M 1038.5 0.5  C 1064.26 0.5  1084.5 20.74  1084.5 46.5  C 1084.5 72.26  1064.26 92.5  1038.5 92.5  C 1012.74 92.5  992.5 72.26  992.5 46.5  C 992.5 20.74  1012.74 0.5  1038.5 0.5  Z " stroke-width="1" stroke="#797979" fill="none" />
  </g>
</svg>